<svg version="1.1" id="Layer_1" xmlns="http://www.w3.org/2000/svg" xmlns:xlink="http://www.w3.org/1999/xlink" x="0px" y="0px"
	 width="100%" viewBox="0 0 4592 4592" enable-background="new 0 0 4592 4592" xml:space="preserve">
<path fill="#000000" opacity="1.000000" stroke="none" 
	d="
M2648.000000,4596.000000 
	C1765.333374,4596.000000 884.666687,4596.000000 4.000000,4596.000000 
	C4.000000,3065.333252 4.000000,1534.666626 4.000000,4.000001 
	C1534.666626,4.000000 3065.333252,4.000000 4596.000000,4.000000 
	C4596.000000,1534.666626 4596.000000,3065.333252 4596.000000,4596.000000 
	C3947.333252,4596.000000 3298.666748,4596.000000 2648.000000,4596.000000 
M1831.744141,3082.508057 
	C1833.193604,3083.416992 1834.643066,3084.325928 1837.184814,3087.555908 
	C1845.339722,3094.401855 1853.777222,3100.940674 1861.604980,3108.142090 
	C1928.489258,3169.675537 2007.957275,3190.660400 2096.375732,3178.330078 
	C2158.966553,3169.601562 2212.213623,3140.602295 2256.944092,3095.716553 
	C2346.786377,3005.563232 2436.979492,2915.760010 2526.881348,2825.666016 
	C2536.709961,2815.816406 2545.296143,2804.735596 2554.972412,2794.722412 
	C2565.149414,2784.191162 2576.100830,2774.412598 2586.443848,2764.036133 
	C2662.647461,2687.585205 2738.641846,2610.924805 2814.978271,2534.606445 
	C2904.038574,2445.567383 2993.464355,2356.893799 3082.577881,2267.907959 
	C3201.403809,2149.251465 3320.100342,2030.465820 3438.782959,1911.666382 
	C3447.248291,1903.192749 3455.633057,1894.551514 3463.226562,1885.307495 
	C3524.852539,1810.289429 3546.147217,1725.039429 3522.321045,1630.893311 
	C3493.675781,1517.705200 3396.591797,1427.447998 3265.027588,1421.531982 
	C3181.033691,1417.754761 3108.016357,1445.542358 3048.116455,1505.430420 
	C2750.763672,1802.725708 2453.460449,2100.070801 2156.144531,2397.403076 
	C2151.433105,2402.114502 2146.791260,2406.895264 2142.097412,2411.624512 
	C2110.668701,2443.291016 2079.234863,2474.952148 2045.546143,2504.844971 
	C1978.267456,2438.309570 1910.792236,2371.971680 1843.756958,2305.191895 
	C1747.422729,2209.225342 1651.682373,2112.661621 1555.181396,2016.863892 
	C1459.141602,1921.523926 1308.531494,1907.609741 1200.899658,1981.764282 
	C1104.123413,2048.439453 1066.535767,2142.321289 1081.707031,2257.114014 
	C1089.969360,2319.630615 1119.104736,2373.092285 1164.140259,2417.766113 
	C1284.310791,2536.970947 1404.354736,2656.303955 1524.252441,2775.783447 
	C1618.682129,2869.883789 1712.805542,2964.291748 1807.125244,3058.502930 
	C1812.257324,3063.629150 1817.943604,3068.200439 1823.766846,3072.414551 
	C1823.766846,3072.414551 1823.141968,3072.034180 1823.575317,3074.599609 
	C1825.043457,3075.362061 1826.511719,3076.124512 1827.975098,3076.017334 
	C1827.975098,3076.017334 1827.105591,3076.023682 1827.576294,3078.601074 
	C1829.053345,3079.382080 1830.530273,3080.163086 1832.161621,3080.110352 
	C1832.161621,3080.110352 1831.328125,3079.951904 1831.744141,3082.508057 
z"/>
<path fill="#64D8D8" opacity="1.000000" stroke="none" 
	d="
M2047.802734,2506.615234 
	C2079.234863,2474.952148 2110.668701,2443.291016 2142.097412,2411.624512 
	C2146.791260,2406.895264 2151.433105,2402.114502 2156.144531,2397.403076 
	C2453.460449,2100.070801 2750.763672,1802.725708 3048.116455,1505.430420 
	C3108.016357,1445.542358 3181.033691,1417.754761 3265.027588,1421.531982 
	C3396.591797,1427.447998 3493.675781,1517.705200 3522.321045,1630.893311 
	C3546.147217,1725.039429 3524.852539,1810.289429 3463.226562,1885.307495 
	C3455.633057,1894.551514 3447.248291,1903.192749 3438.782959,1911.666382 
	C3320.100342,2030.465820 3201.403809,2149.251465 3082.577881,2267.907959 
	C2993.464355,2356.893799 2904.038574,2445.567383 2814.978271,2534.606445 
	C2738.641846,2610.924805 2662.647461,2687.585205 2586.443848,2764.036133 
	C2576.100830,2774.412598 2565.149414,2784.191162 2554.972412,2794.722412 
	C2545.296143,2804.735596 2536.709961,2815.816406 2526.881348,2825.666016 
	C2436.979492,2915.760010 2346.786377,3005.563232 2256.944092,3095.716553 
	C2212.213623,3140.602295 2158.966553,3169.601562 2096.375732,3178.330078 
	C2007.957275,3190.660400 1928.489258,3169.675537 1861.604980,3108.142090 
	C1853.777222,3100.940674 1845.339722,3094.401855 1835.948120,3085.413086 
	C1833.583740,3082.164062 1832.455933,3081.058105 1831.328125,3079.951904 
	C1831.328125,3079.951904 1832.161621,3080.110352 1831.404785,3079.575195 
	C1829.467041,3078.034912 1828.286255,3077.029297 1827.105591,3076.023682 
	C1827.105591,3076.023682 1827.975098,3076.017334 1827.314697,3075.509277 
	C1825.483643,3074.012207 1824.312866,3073.023193 1823.142090,3072.034180 
	C1823.141968,3072.034180 1823.766846,3072.414551 1823.757080,3071.195801 
	C1821.848999,3065.108643 1820.412476,3059.990723 1817.948242,3055.427734 
	C1813.838989,3047.818604 1808.571289,3040.819092 1804.661865,3033.120850 
	C1776.742432,2978.140137 1765.409668,2920.466553 1775.529419,2858.939697 
	C1785.226929,2799.979736 1809.335815,2748.470215 1851.708740,2705.984619 
	C1911.963989,2645.569824 1972.394165,2585.329590 2032.613525,2524.879395 
	C2038.179321,2519.291992 2042.762939,2512.726318 2047.802734,2506.615234 
z"/>
<path fill="#90B8FA" opacity="1.000000" stroke="none" 
	d="
M2046.674316,2505.729980 
	C2042.762939,2512.726318 2038.179321,2519.291992 2032.613525,2524.879395 
	C1972.394165,2585.329590 1911.963989,2645.569824 1851.708740,2705.984619 
	C1809.335815,2748.470215 1785.226929,2799.979736 1775.529419,2858.939697 
	C1765.409668,2920.466553 1776.742432,2978.140137 1804.661865,3033.120850 
	C1808.571289,3040.819092 1813.838989,3047.818604 1817.948242,3055.427734 
	C1820.412476,3059.990723 1821.848999,3065.108643 1823.559692,3071.503906 
	C1817.943604,3068.200439 1812.257324,3063.629150 1807.125244,3058.502930 
	C1712.805542,2964.291748 1618.682129,2869.883789 1524.252441,2775.783447 
	C1404.354736,2656.303955 1284.310791,2536.970947 1164.140259,2417.766113 
	C1119.104736,2373.092285 1089.969360,2319.630615 1081.707031,2257.114014 
	C1066.535767,2142.321289 1104.123413,2048.439453 1200.899658,1981.764282 
	C1308.531494,1907.609741 1459.141602,1921.523926 1555.181396,2016.863892 
	C1651.682373,2112.661621 1747.422729,2209.225342 1843.756958,2305.191895 
	C1910.792236,2371.971680 1978.267456,2438.309570 2046.674316,2505.729980 
z"/>
<path fill="#90B8FA" opacity="1.000000" stroke="none" 
	d="
M1823.358643,3073.316895 
	C1824.312866,3073.023193 1825.483643,3074.012207 1827.317139,3075.944092 
	C1826.511719,3076.124512 1825.043457,3075.362061 1823.358643,3073.316895 
z"/>
<path fill="#90B8FA" opacity="1.000000" stroke="none" 
	d="
M1827.340942,3077.312500 
	C1828.286255,3077.029297 1829.467041,3078.034912 1831.327515,3079.992188 
	C1830.530273,3080.163086 1829.053345,3079.382080 1827.340942,3077.312500 
z"/>
<path fill="#90B8FA" opacity="1.000000" stroke="none" 
	d="
M1831.536133,3081.229980 
	C1832.455933,3081.058105 1833.583740,3082.164062 1835.401978,3084.252441 
	C1834.643066,3084.325928 1833.193604,3083.416992 1831.536133,3081.229980 
z"/>
</svg>